<?xml version="1.0" encoding="UTF-8" standalone="no"?>
<svg
   width="16"
   height="16"
   fill="currentColor"
   class="bi bi-house"
   viewBox="0 0 16 16"
   version="1.1"
   id="svg1"
   sodipodi:docname="house-solid-full.svg"
   inkscape:version="1.4 (e7c3feb100, 2024-10-09)"
   xmlns:inkscape="http://www.inkscape.org/namespaces/inkscape"
   xmlns:sodipodi="http://sodipodi.sourceforge.net/DTD/sodipodi-0.dtd"
   xmlns="http://www.w3.org/2000/svg"
   xmlns:svg="http://www.w3.org/2000/svg">
  <defs
     id="defs1" />
  <sodipodi:namedview
     id="namedview1"
     pagecolor="#ffffff"
     bordercolor="#000000"
     borderopacity="0.25"
     inkscape:showpageshadow="2"
     inkscape:pageopacity="0.0"
     inkscape:pagecheckerboard="0"
     inkscape:deskcolor="#d1d1d1"
     inkscape:zoom="48.125"
     inkscape:cx="7.9896104"
     inkscape:cy="8"
     inkscape:window-width="1920"
     inkscape:window-height="1002"
     inkscape:window-x="0"
     inkscape:window-y="0"
     inkscape:window-maximized="1"
     inkscape:current-layer="svg1" />
  <path
     d="M8.707 1.5a1 1 0 0 0-1.414 0L.646 8.146a.5.5 0 0 0 .708.708L2 8.207V13.5A1.5 1.5 0 0 0 3.5 15h9a1.5 1.5 0 0 0 1.5-1.5V8.207l.646.647a.5.5 0 0 0 .708-.708L13 5.793V2.5a.5.5 0 0 0-.5-.5h-1a.5.5 0 0 0-.5.5v1.293zM13 7.207V13.5a.5.5 0 0 1-.5.5h-9a.5.5 0 0 1-.5-.5V7.207l5-5z"
     id="path1" />
  <path
     style="fill:#ff0000;stroke-width:0.0207792"
     d="M 3.1320418,14.939946 C 2.8682521,14.870829 2.6632613,14.749368 2.4511702,14.536516 2.2991215,14.383922 2.2469582,14.314435 2.177102,14.171429 2.0038096,13.816672 2.017869,14.086359 2.0105493,10.976623 2.0069648,9.4537662 1.9971744,8.2077922 1.9887929,8.2077922 c -0.00838,0 -0.1694187,0.1549421 -0.3578602,0.3443159 C 1.2000619,8.9851104 1.1084028,9.0356405 0.87625006,8.9681519 0.57451215,8.8804343 0.42692221,8.5497581 0.56820555,8.2779761 0.59358993,8.2291451 1.9552315,6.8542336 4.0245259,4.7879717 7.4215796,1.3958966 7.4397544,1.3781789 7.5948052,1.3074522 7.7445899,1.2391276 7.7603443,1.2363636 8,1.2363636 c 0.2399437,0 0.2552301,0.00269 0.4051948,0.071349 0.1516513,0.069429 0.1886548,0.1040415 1.3753635,1.2864831 l 1.2195197,1.2151342 0.0065,-0.7150545 c 0.0062,-0.6870362 0.0082,-0.7183112 0.05139,-0.7981713 0.05803,-0.1073397 0.163417,-0.2076411 0.260894,-0.2482975 0.114022,-0.047557 1.248352,-0.047557 1.362374,0 0.09748,0.040656 0.202867,0.1409578 0.260894,0.2482975 0.04488,0.083029 0.04494,0.084937 0.0506,1.7974026 l 0.0057,1.7142857 1.202594,1.2051948 c 0.661427,0.6628572 1.219602,1.2379221 1.240389,1.2779221 0.05472,0.1052941 0.0512,0.3171077 -0.0071,0.4279414 -0.1263,0.2400804 -0.414665,0.3354306 -0.649806,0.2148638 -0.04,-0.02051 -0.226907,-0.1922325 -0.415349,-0.3816062 -0.188441,-0.1893738 -0.349478,-0.3443159 -0.35786,-0.3443159 -0.0084,0 -0.01817,1.245974 -0.02176,2.7688306 -0.0073,3.109736 0.0067,2.840049 -0.166553,3.194806 -0.06986,0.143006 -0.122019,0.212493 -0.274068,0.365087 -0.214824,0.215594 -0.41872,0.335259 -0.689053,0.404399 -0.156834,0.04011 -0.251114,0.04088 -4.8682956,0.03976 -4.5613598,-0.0011 -4.7130814,-0.0024 -4.8594396,-0.04073 z m 9.5369072,-0.959188 c 0.109142,-0.0327 0.252387,-0.162216 0.300087,-0.271327 0.03719,-0.08507 0.03898,-0.218261 0.04427,-3.298686 l 0.0055,-3.2100346 -2.498992,-2.4990566 C 9.1453903,3.3271728 8.0114641,2.2025974 8,2.2025974 c -0.011464,0 -1.1453903,1.1245754 -2.5198358,2.4990564 l -2.498992,2.4990566 0.00552,3.2100346 0.00552,3.210034 0.044069,0.09527 c 0.048989,0.105911 0.1741328,0.222069 0.2808573,0.260691 0.09974,0.03609 9.2316565,0.04001 9.3518145,0.004 z"
     id="path2" />
  <path
     style="fill:#88683b;stroke-width:0.0207792;fill-opacity:1"
     d="M 3.2,14.940113 C 2.9404079,14.900122 2.6812586,14.751023 2.4370386,14.50115 2.3081834,14.369312 2.25595,14.295283 2.1711972,14.124381 2.065938,13.912128 2.0656802,13.911108 2.0465802,13.631169 c -0.010527,-0.154286 -0.01947,-0.84703 -0.019873,-1.539431 -0.00106,-1.814559 -0.025462,-3.8839458 -0.045804,-3.8839458 -0.00961,0 -0.175878,0.1538354 -0.3694834,0.3418564 C 1.4178145,8.7376698 1.2218699,8.9106568 1.1759874,8.9340642 0.96051678,9.0439892 0.66319355,8.9166101 0.5602697,8.6702784 0.52136538,8.5771674 0.52131658,8.4139418 0.56016527,8.3209639 0.59189646,8.2450205 5.8624343,2.9448887 6.9347073,1.910629 7.6044507,1.2646287 7.6108586,1.2605375 7.9689078,1.2503247 c 0.2821436,-0.00805 0.4078367,0.027857 0.5869798,0.1676717 0.059976,0.046809 0.6350215,0.6090227 1.2778786,1.2493631 l 1.1688308,1.1642553 0.0021,-0.092431 c 0.0012,-0.050837 0.0082,-0.3838504 0.01558,-0.7400298 l 0.01347,-0.6475991 0.06234,-0.088085 c 0.03429,-0.048447 0.09734,-0.1162778 0.140131,-0.1507353 0.07644,-0.061556 0.08378,-0.063007 0.420779,-0.083091 0.22487,-0.013401 0.461102,-0.013401 0.685972,0 0.336999,0.020084 0.344344,0.021534 0.420779,0.083091 0.04279,0.034457 0.105845,0.1022938 0.140131,0.1507474 l 0.06234,0.088097 0.01084,1.7314453 0.01085,1.7314454 1.205346,1.212763 c 0.717287,0.7216998 1.219825,1.2432734 1.241103,1.2881133 0.03978,0.083826 0.04603,0.2183206 0.01529,0.3288095 -0.04554,0.1636582 -0.265266,0.3317767 -0.434264,0.3322646 -0.170193,4.914e-4 -0.223655,-0.035453 -0.609047,-0.4094799 -0.203533,-0.1975317 -0.377861,-0.3591483 -0.387395,-0.3591483 -0.02039,0 -0.04458,2.0481311 -0.04564,3.8649351 -4.14e-4,0.702857 -0.0094,1.404156 -0.01989,1.558442 l -0.01914,0.280519 -0.108104,0.218182 c -0.09316,0.18802 -0.1329,0.242599 -0.287477,0.394805 -0.19525,0.192257 -0.372711,0.307885 -0.582855,0.379771 l -0.135065,0.0462 -4.7584413,0.0027 C 5.4451948,14.954888 3.2571429,14.948916 3.2,14.940113 Z m 9.537662,-0.979885 c 0.07992,-0.04433 0.192791,-0.155568 0.227187,-0.2239 0.01473,-0.02927 0.03262,-0.132692 0.03976,-0.229834 0.0071,-0.09714 0.01365,-1.56052 0.01448,-3.251949 l 0.0015,-3.0753242 -2.494765,-2.4883117 C 9.1537105,3.3223377 8.0171472,2.2025974 8.0001353,2.2025974 c -0.017012,0 -1.1537097,1.1197403 -2.5259952,2.4883117 l -2.495065,2.4883117 0.00181,3.2276552 c 0.00174,3.11379 0.00318,3.230344 0.040793,3.303896 0.089252,0.17454 0.2100287,0.258738 0.3954774,0.275706 0.074852,0.0068 2.1885619,0.01152 4.6971333,0.01039 4.2128782,-0.0019 4.5657972,-0.0047 4.6233762,-0.03664 z"
     id="path3" />
</svg>
